<svg xmlns="http://www.w3.org/2000/svg" xmlns:xlink="http://www.w3.org/1999/xlink" width="1246.296" height="1270.734" viewBox="0 0 1246.296 1270.734"><defs><style>.a{fill:none;}.b{opacity:0.05;}.c{clip-path:url(#a);}.d{fill:#9191ad;}.e{fill:#26235d;}</style><clipPath id="a"><rect class="a" width="1246.296" height="1270.734"/></clipPath></defs><g class="b"><g class="c"><path class="d" d="M541.127-56.066q-18.982,0-37.938,1.631h-.031A32.211,32.211,0,0,0,473.9-35.688,31.343,31.343,0,0,0,480.937-.832l468.647,454a29.289,29.289,0,0,0,20.869,8.741,30.446,30.446,0,0,0,3.738-.237h.188a27.53,27.53,0,0,0,26.463-19.927,638.659,638.659,0,0,0,21.685-70,44.825,44.825,0,0,0-9.678-39.834l-3.219-3.521L632.361-30.708a85.906,85.906,0,0,0-53.306-23.727q-18.929-1.631-37.928-1.631" transform="translate(220.566 417.836)"/><path class="d" d="M171.911-40.98a29.077,29.077,0,0,0-3.724.239H168a27.556,27.556,0,0,0-26.477,19.925,636.77,636.77,0,0,0-21.673,70,44.84,44.84,0,0,0,9.666,39.837l3.221,3.5L510.586,451.349a85.84,85.84,0,0,0,52.723,24.012Q582.243,477,601.247,477q18.985,0,37.93-1.641h.027a32.221,32.221,0,0,0,29.262-18.733,31.342,31.342,0,0,0-7.037-34.866L192.78-32.243a29.316,29.316,0,0,0-20.869-8.737" transform="translate(-116.644 432.256)"/><path class="e" d="M318.4-156.156,529.883,58.252C588.465,116.835,677.8,26.32,620.1-31.668L436.742-220.884c-24.31-25.2-67.666-2.936-94.612,7.026s-48.038,33.1-23.729,57.7" transform="translate(64.117 249.207)"/><path class="e" d="M869.781,189.078c58.569,58.583,147.906-31.93,89.918-90.217l-280.6-276.8A232.487,232.487,0,0,0,569.84-225.683a543.635,543.635,0,0,0-73.226-14.348c-11.722,0-23.729,0-29.291,11.72a22.543,22.543,0,0,0,4.4,25.775Z" transform="translate(214.551 241.987)"/><path class="e" d="M1141.774,698.355,292.329-151.078c-24.3-24.321-50.663-3.517-70,15.526s-47.156,47.739-20.208,74.691l849.436,849.422c23.715,23.727,48.905,5.277,67.355-12.887s50.974-49.2,22.858-77.318" transform="translate(-47.484 316.478)"/><path class="e" d="M718.33,475.443,506.848,261.051c-58.583-58.6-147.917,31.916-90.215,89.916L600,540.185c24.312,25.19,67.654,2.922,94.6-7.039s48.036-33.094,23.727-57.7" transform="translate(150.418 702.821)"/><path class="e" d="M256.085,197.543c-58.569-58.583-147.918,31.93-89.918,90.217l280.9,276.8A232.241,232.241,0,0,0,556.322,612.3a543.622,543.622,0,0,0,73.226,14.348c11.722,0,23.729,0,29.291-11.72a22.54,22.54,0,0,0-4.4-25.773Z" transform="translate(-89.15 642.125)"/></g></g></svg>