<svg xmlns="http://www.w3.org/2000/svg" width="194.367" height="29.655" viewBox="0 0 194.367 29.655"><defs><style>.a{fill:#d30042;}.b{fill:#fff;}.c{fill:#121b4b;}</style></defs><g transform="translate(-82.167 -243.747)"><g transform="translate(83.499 243.747)"><path class="a" d="M90.006,245.833l4.952,5.016a1.491,1.491,0,0,0,2.111-2.105l-4.293-4.428c-.57-.589-1.585-.067-2.216.161C89.992,244.684,89.437,245.257,90.006,245.833Z" transform="translate(-82.413 -243.704)"/><path class="a" d="M105.535,253.8a1.491,1.491,0,0,0,2.106-2.109l-6.57-6.482a5.455,5.455,0,0,0-2.555-1.12,12.756,12.756,0,0,0-1.716-.334c-.275-.032-.553-.013-.693.271a.53.53,0,0,0,.1.6Z" transform="translate(-81.515 -243.747)"/><path class="a" d="M107.328,267,87.462,247.137c-.567-.567-1.187-.085-1.638.36-.464.461-1.1,1.118-.471,1.747l19.866,19.866c.557.557,1.143.123,1.578-.3C107.274,268.343,107.985,267.661,107.328,267Z" transform="translate(-83.081 -243.3)"/><path class="a" d="M100.871,268.515,95.918,263.5a1.491,1.491,0,0,0-2.111,2.105l4.293,4.43c.57.589,1.584.067,2.216-.162C100.883,269.665,101.439,269.091,100.871,268.515Z" transform="translate(-81.899 -240.989)"/><path class="a" d="M85.878,260.953a1.491,1.491,0,0,0-2.107,2.108l6.57,6.481a5.439,5.439,0,0,0,2.556,1.121,12.689,12.689,0,0,0,1.716.333c.274.032.552.014.691-.27a.526.526,0,0,0-.1-.6Z" transform="translate(-83.332 -241.353)"/></g><g transform="translate(82.167 251.408)"><g transform="translate(38.236)"><path class="b" d="M121.18,256.63c-1.8-.431-3.35-.8-3.35-2.185,0-1.52,1.705-2.06,3.3-2.06a9.335,9.335,0,0,1,3.067.513,1.028,1.028,0,0,0,.367.088.951.951,0,0,0,.928-.967.919.919,0,0,0-.642-.918,11.261,11.261,0,0,0-3.914-.65c-3.576,0-5.176,2.074-5.176,4.13,0,2.806,2.664,3.488,5.013,4.09,1.735.443,3.232.826,3.232,1.963,0,1.4-1.061,2.08-3.243,2.08A9.2,9.2,0,0,1,117,261.93a1.067,1.067,0,0,0-.429-.089.948.948,0,0,0-.947.967,1.044,1.044,0,0,0,.635.934,11.748,11.748,0,0,0,4.677.944c3.014,0,5.119-1.618,5.119-3.936C126.056,257.8,123.466,257.179,121.18,256.63Z" transform="translate(-115.625 -250.451)"/><path class="b" d="M138.985,250.537a1.035,1.035,0,0,0-1.025,1.043V259.3a3.657,3.657,0,0,1-7.3,0V251.58a1.057,1.057,0,0,0-1.045-1.043,1.035,1.035,0,0,0-1.024,1.043v7.664c0,3.564,2.878,5.429,5.72,5.429s5.721-1.865,5.721-5.429V251.58A1.058,1.058,0,0,0,138.985,250.537Z" transform="translate(-113.774 -250.439)"/><path class="b" d="M152.734,250.622h-9.662a.966.966,0,0,0-.967.985.946.946,0,0,0,.967.967h3.807V263.54a1.034,1.034,0,0,0,2.068,0V252.574h3.787a.976.976,0,1,0,0-1.952Z" transform="translate(-111.844 -250.427)"/><path class="b" d="M165.957,250.537a1.036,1.036,0,0,0-1.025,1.043v5.009h-7.05V251.58a1.057,1.057,0,0,0-1.043-1.043,1.035,1.035,0,0,0-1.025,1.043v11.972a1.034,1.034,0,0,0,2.068,0v-5.01h7.05v5.01a1.035,1.035,0,0,0,2.07,0V251.58A1.058,1.058,0,0,0,165.957,250.537Z" transform="translate(-109.886 -250.439)"/><path class="b" d="M179.372,252.574a.976.976,0,1,0,0-1.952h-7.781a1.035,1.035,0,0,0-1.024,1.043v11.777a1.026,1.026,0,0,0,1.024,1.025h7.781a.966.966,0,0,0,.985-.967.976.976,0,0,0-.985-.986h-6.737v-4h6.037a.966.966,0,0,0,.986-.967.976.976,0,0,0-.986-.986h-6.037v-3.984Z" transform="translate(-107.779 -250.427)"/><path class="b" d="M194.1,254.712c0-2.6-1.978-4.09-5.428-4.09h-4.521a1.036,1.036,0,0,0-1.025,1.043V263.54a1.034,1.034,0,0,0,2.068,0V259.19h3.866c2.53,0,2.855,2.014,2.855,3.768v.583a.98.98,0,0,0,1.045,1.024,1.024,1.024,0,0,0,1.024-1.024v-.893c0-.863-.161-3.6-2.137-4.435A3.758,3.758,0,0,0,194.1,254.712Zm-2.068.135c0,1.486-1.3,2.371-3.476,2.371H185.2v-4.625h3.263C191.627,252.593,192.033,253.8,192.033,254.847Z" transform="translate(-105.986 -250.427)"/><path class="b" d="M205.5,262.411h-6.194V251.58a1.057,1.057,0,0,0-1.045-1.043,1.035,1.035,0,0,0-1.024,1.043v11.525a1.375,1.375,0,0,0,1.374,1.374H205.5a1.036,1.036,0,0,0,1.043-1.025A1.059,1.059,0,0,0,205.5,262.411Z" transform="translate(-103.97 -250.439)"/><path class="b" d="M216.156,251.425a1.368,1.368,0,0,0-1.264-.888H214.7a1.368,1.368,0,0,0-1.265.888L208.486,263.1a1.18,1.18,0,0,0-.11.448.992.992,0,0,0,1.025,1.024,1.041,1.041,0,0,0,.974-.635l1.223-2.935h6.394l1.224,2.937a1.04,1.04,0,0,0,.973.633.992.992,0,0,0,1.025-1.024,1.167,1.167,0,0,0-.109-.448Zm1.031,7.667H212.4l2.393-5.759Z" transform="translate(-102.38 -250.439)"/><path class="b" d="M234.315,250.537a1.036,1.036,0,0,0-1.026,1.043v9.993l-7.2-10.4a1.514,1.514,0,0,0-1.187-.64h-.253a1.423,1.423,0,0,0-1.411,1.432v11.583a1.025,1.025,0,0,0,1.024,1.024,1.036,1.036,0,0,0,1.045-1.024V253.541l7.235,10.451a1.431,1.431,0,0,0,1.15.584h.233a1.423,1.423,0,0,0,1.432-1.412V251.58A1.058,1.058,0,0,0,234.315,250.537Z" transform="translate(-100.258 -250.439)"/><path class="b" d="M249.009,252.829a6.8,6.8,0,0,0-5.276-2.207h-3.9a1.035,1.035,0,0,0-1.024,1.043v11.777a1.026,1.026,0,0,0,1.024,1.025h3.9a6.791,6.791,0,0,0,5.276-2.215,7.3,7.3,0,0,0,0-9.424Zm-.326,4.715a4.8,4.8,0,0,1-5.165,4.97h-2.641v-9.94h2.641A4.8,4.8,0,0,1,248.683,257.544Z" transform="translate(-98.034 -250.427)"/></g><g transform="translate(0 0.756)"><path class="b" d="M98.829,251.151a10.321,10.321,0,0,0-1.774,0,.76.76,0,0,0-.68.441.733.733,0,0,0,.168.813l10.972,10.626a.679.679,0,0,0,.575.2.639.639,0,0,0,.625-.469,14.638,14.638,0,0,0,.507-1.641,1.046,1.046,0,0,0-.226-.932,1,1,0,0,0-.075-.08l-8.845-8.4A2.014,2.014,0,0,0,98.829,251.151Z" transform="translate(-80.146 -251.113)"/><path class="b" d="M92.591,263.8a10.312,10.312,0,0,0,1.774,0,.756.756,0,0,0,.68-.441.733.733,0,0,0-.167-.812L83.9,251.92a.675.675,0,0,0-.574-.2.64.64,0,0,0-.626.469,15.142,15.142,0,0,0-.509,1.641,1.051,1.051,0,0,0,.229.931c.024.027.048.056.074.081l8.845,8.4A2,2,0,0,0,92.591,263.8Z" transform="translate(-82.167 -251.026)"/></g></g><g transform="translate(273.1 251.604)"><g transform="translate(1.121 0.786)"><path class="c" d="M250.223,253.136V251.31h.735a.578.578,0,0,1,.414.151.523.523,0,0,1,.161.4.59.59,0,0,1-.04.219.466.466,0,0,1-.106.165.514.514,0,0,1-.152.1.532.532,0,0,1-.179.046l.493.742h-.269l-.462-.722h-.367v.722Zm.227-.925h.479a.371.371,0,0,0,.265-.1.36.36,0,0,0,0-.5.372.372,0,0,0-.265-.1h-.479Z" transform="translate(-250.223 -251.31)"/></g><path class="c" d="M250.958,254.055a1.717,1.717,0,1,1,1.716-1.718A1.718,1.718,0,0,1,250.958,254.055Zm0-3.206a1.489,1.489,0,1,0,1.488,1.488A1.49,1.49,0,0,0,250.958,250.849Z" transform="translate(-249.242 -250.622)"/></g></g></svg>