<svg xmlns="http://www.w3.org/2000/svg" xmlns:xlink="http://www.w3.org/1999/xlink" width="200.536" height="30.558" viewBox="0 0 200.536 30.558"><defs><style>.a{fill:none;}.b{clip-path:url(#a);}.c{fill:#fff;}.d{opacity:0.5;}.e{clip-path:url(#b);}.f{clip-path:url(#d);}.g{clip-path:url(#e);}</style><clipPath id="a"><rect class="a" width="200.536" height="30.558" transform="translate(545.584 343.199)"/></clipPath><clipPath id="b"><rect class="a" width="13.346" height="12.501" transform="translate(562.27 351.885)"/></clipPath><clipPath id="d"><rect class="a" width="13.346" height="12.5" transform="translate(545.585 352.603)"/></clipPath><clipPath id="e"><rect class="a" width="13.346" height="12.5" transform="translate(545.584 352.603)"/></clipPath></defs><g transform="translate(-545.584 -343.199)"><g class="b"><path class="c" d="M554.792,345.4l5.109,5.175a1.539,1.539,0,0,0,2.178-2.172l-4.429-4.57c-.589-.607-1.636-.07-2.287.167-.584.213-1.157.806-.571,1.4"/><path class="c" d="M571.74,353.575a1.539,1.539,0,0,0,2.174-2.176l-6.779-6.686a5.612,5.612,0,0,0-2.637-1.157,13.185,13.185,0,0,0-1.771-.344c-.283-.033-.57-.013-.714.279a.546.546,0,0,0,.107.62Z"/><path class="c" d="M571.975,367.656l-20.5-20.5c-.585-.585-1.225-.087-1.689.371-.479.475-1.137,1.154-.486,1.8l20.5,20.5c.574.575,1.178.129,1.628-.312.49-.48,1.224-1.184.546-1.862"/><path class="c" d="M566.533,371.6l-5.109-5.175a1.539,1.539,0,0,0-2.178,2.172l4.429,4.57c.589.607,1.635.07,2.287-.167.584-.213,1.157-.806.571-1.4"/><path class="c" d="M549.586,363.422a1.539,1.539,0,0,0-2.174,2.176l6.779,6.687a5.6,5.6,0,0,0,2.636,1.156,13.169,13.169,0,0,0,1.772.344c.283.032.57.013.713-.279a.544.544,0,0,0-.106-.62Z"/><path class="c" d="M590.766,357.48c-1.855-.445-3.456-.83-3.456-2.255,0-1.568,1.76-2.126,3.407-2.126a9.634,9.634,0,0,1,3.164.529,1.059,1.059,0,0,0,.379.092.981.981,0,0,0,.957-1,.944.944,0,0,0-.663-.946,11.6,11.6,0,0,0-4.038-.671c-3.69,0-5.341,2.139-5.341,4.26,0,2.9,2.749,3.6,5.174,4.219,1.789.459,3.334.854,3.334,2.027,0,1.443-1.095,2.146-3.347,2.146a9.485,9.485,0,0,1-3.882-.809,1.108,1.108,0,0,0-.442-.092.978.978,0,0,0-.977,1,1.075,1.075,0,0,0,.655.963,12.107,12.107,0,0,0,4.826.975c3.11,0,5.281-1.67,5.281-4.06,0-3.044-2.673-3.686-5.031-4.251"/><path class="c" d="M611.046,351.2a1.068,1.068,0,0,0-1.057,1.077v7.967a3.773,3.773,0,0,1-7.535,0v-7.967a1.09,1.09,0,0,0-1.077-1.077,1.068,1.068,0,0,0-1.057,1.077v7.907c0,3.678,2.969,5.6,5.9,5.6s5.9-1.923,5.9-5.6v-7.907a1.091,1.091,0,0,0-1.077-1.077"/><path class="c" d="M627.224,351.3h-9.969a1,1,0,0,0-1,1.017.975.975,0,0,0,1,1h3.927v11.314a1.068,1.068,0,0,0,2.135,0V353.319h3.907a1,1,0,0,0,1.017-1,1.007,1.007,0,0,0-1.017-1.017"/><path class="c" d="M642.886,351.2a1.068,1.068,0,0,0-1.057,1.077v5.169h-7.274v-5.169a1.092,1.092,0,0,0-1.077-1.077,1.068,1.068,0,0,0-1.057,1.077v12.351a1.067,1.067,0,0,0,2.134,0v-5.168h7.274v5.168a1.067,1.067,0,0,0,2.134,0V352.282a1.091,1.091,0,0,0-1.077-1.077"/><path class="c" d="M658.9,353.319a1,1,0,0,0,1.018-1A1.007,1.007,0,0,0,658.9,351.3h-8.028a1.068,1.068,0,0,0-1.056,1.077v12.151a1.059,1.059,0,0,0,1.056,1.058H658.9a1.008,1.008,0,1,0,0-2.015h-6.95v-4.131h6.229a1,1,0,0,0,1.018-1,1.008,1.008,0,0,0-1.018-1.018H651.95v-4.111Z"/><path class="c" d="M675.948,355.525c0-2.682-2.042-4.22-5.6-4.22h-4.664a1.068,1.068,0,0,0-1.057,1.077v12.252a1.067,1.067,0,0,0,2.134,0v-4.489h3.988c2.611,0,2.946,2.078,2.946,3.888v.6a1.011,1.011,0,0,0,1.078,1.057,1.058,1.058,0,0,0,1.056-1.057v-.921c0-.89-.166-3.713-2.205-4.576a3.876,3.876,0,0,0,2.326-3.612m-2.135.14c0,1.532-1.34,2.446-3.587,2.446h-3.467v-4.772h3.367c3.269,0,3.687,1.243,3.687,2.326"/><path class="c" d="M689.79,363.456H683.4V352.282a1.091,1.091,0,0,0-1.077-1.077,1.069,1.069,0,0,0-1.058,1.077v11.891a1.419,1.419,0,0,0,1.418,1.418h7.107a1.069,1.069,0,0,0,1.077-1.058,1.093,1.093,0,0,0-1.077-1.077"/><path class="c" d="M702.422,352.121a1.412,1.412,0,0,0-1.3-.915h-.2a1.413,1.413,0,0,0-1.305.915l-5.1,12.051a1.221,1.221,0,0,0-.112.462,1.023,1.023,0,0,0,1.057,1.058,1.077,1.077,0,0,0,1.006-.657l1.259-3.027h6.6l1.262,3.03a1.072,1.072,0,0,0,1,.654,1.023,1.023,0,0,0,1.056-1.058,1.209,1.209,0,0,0-.111-.462Zm1.064,7.912h-4.937l2.469-5.942Z"/><path class="c" d="M723.347,351.2a1.069,1.069,0,0,0-1.058,1.077v10.309l-7.426-10.725a1.562,1.562,0,0,0-1.225-.661h-.26a1.469,1.469,0,0,0-1.457,1.477v11.951a1.059,1.059,0,0,0,1.057,1.058,1.07,1.07,0,0,0,1.077-1.058V354.3l7.465,10.783a1.477,1.477,0,0,0,1.186.6h.241a1.469,1.469,0,0,0,1.477-1.458V352.282a1.092,1.092,0,0,0-1.077-1.077"/><path class="c" d="M740.8,353.583a7.012,7.012,0,0,0-5.444-2.277h-4.024a1.067,1.067,0,0,0-1.056,1.076v12.151a1.059,1.059,0,0,0,1.056,1.058h4.024a7.005,7.005,0,0,0,5.444-2.285,7.535,7.535,0,0,0,0-9.723m-.336,4.865a4.953,4.953,0,0,1-5.329,5.129h-2.725V353.319h2.725a4.953,4.953,0,0,1,5.329,5.129"/><g class="d"><g class="e"><g class="e"><path class="c" d="M564.861,351.924a10.539,10.539,0,0,0-1.83,0,.783.783,0,0,0-.7.455.757.757,0,0,0,.173.839l11.321,10.962a.7.7,0,0,0,.593.205.663.663,0,0,0,.646-.483,15.282,15.282,0,0,0,.523-1.693,1.081,1.081,0,0,0-.235-.962c-.024-.028-.049-.056-.076-.083l-9.127-8.667a2.075,2.075,0,0,0-1.286-.573"/></g></g></g><g class="d"><g class="f"><g class="g"><path class="c" d="M556.34,365.064a10.639,10.639,0,0,0,1.83,0,.781.781,0,0,0,.7-.455.758.758,0,0,0-.174-.839l-11.32-10.962a.7.7,0,0,0-.593-.205.661.661,0,0,0-.646.484,15.2,15.2,0,0,0-.523,1.693,1.079,1.079,0,0,0,.235.961c.024.028.049.057.076.084l9.126,8.666a2.075,2.075,0,0,0,1.287.573"/></g></g></g><path class="c" d="M743.737,354v-1.883h.758a.6.6,0,0,1,.427.155.539.539,0,0,1,.165.412.616.616,0,0,1-.04.227.5.5,0,0,1-.109.17.551.551,0,0,1-.158.107.574.574,0,0,1-.185.048l.509.764h-.277l-.477-.744h-.378V354Zm.235-.954h.494a.378.378,0,0,0,.272-.1.373.373,0,0,0,0-.52.382.382,0,0,0-.273-.1h-.494Z"/><path class="c" d="M744.351,354.847a1.771,1.771,0,1,1,1.77-1.771,1.773,1.773,0,0,1-1.77,1.771m0-3.307a1.536,1.536,0,1,0,1.536,1.536,1.538,1.538,0,0,0-1.536-1.536"/></g></g></svg>