<svg xmlns="http://www.w3.org/2000/svg" width="320" height="48.822" viewBox="0 0 320 48.822"><defs><style>.a{fill:#d30042;}.b{fill:#121b4b;}</style></defs><g transform="translate(-82.167 -243.747)"><g transform="translate(84.36 243.747)"><path class="a" d="M90.16,246.989l8.152,8.258c2.243,2.245,5.7-1.232,3.475-3.466l-7.069-7.291c-.939-.969-2.61-.111-3.648.265C90.137,245.1,89.223,246.041,90.16,246.989Z" transform="translate(-77.66 -243.484)"/><path class="a" d="M111.662,260.3c2.246,2.246,5.7-1.236,3.468-3.471l-10.817-10.672a8.981,8.981,0,0,0-4.207-1.844,21,21,0,0,0-2.826-.549c-.453-.053-.911-.021-1.14.446a.873.873,0,0,0,.169.99Z" transform="translate(-72.117 -243.747)"/><path class="a" d="M121.7,280.011,89,247.3c-.933-.933-1.955-.139-2.7.593-.764.758-1.812,1.84-.775,2.877l32.708,32.708c.916.916,1.881.2,2.6-.5C121.613,282.216,122.783,281.093,121.7,280.011Z" transform="translate(-81.782 -240.986)"/><path class="a" d="M105.719,272.041l-8.154-8.258c-2.243-2.243-5.7,1.232-3.475,3.466l7.069,7.293c.939.969,2.608.111,3.648-.267C105.738,273.936,106.654,272.99,105.719,272.041Z" transform="translate(-74.483 -226.724)"/><path class="a" d="M87.524,261.238c-2.248-2.248-5.7,1.236-3.469,3.471l10.817,10.67a8.955,8.955,0,0,0,4.209,1.846,20.89,20.89,0,0,0,2.826.548c.452.053.909.023,1.138-.444a.867.867,0,0,0-.171-.99Z" transform="translate(-83.332 -228.969)"/></g><g transform="translate(82.167 256.36)"><g transform="translate(62.951)"><path class="b" d="M124.771,260.624c-2.96-.709-5.515-1.323-5.515-3.6,0-2.5,2.807-3.392,5.436-3.392a15.368,15.368,0,0,1,5.05.845,1.693,1.693,0,0,0,.6.145,1.565,1.565,0,0,0,1.528-1.592,1.513,1.513,0,0,0-1.057-1.511,18.539,18.539,0,0,0-6.444-1.071c-5.887,0-8.521,3.415-8.521,6.8,0,4.619,4.386,5.742,8.254,6.734,2.856.73,5.321,1.36,5.321,3.232,0,2.3-1.746,3.424-5.34,3.424a15.15,15.15,0,0,1-6.2-1.291,1.757,1.757,0,0,0-.706-.147,1.561,1.561,0,0,0-1.56,1.592,1.72,1.72,0,0,0,1.046,1.537,19.342,19.342,0,0,0,7.7,1.554c4.961,0,8.427-2.664,8.427-6.48C132.8,262.551,128.534,261.527,124.771,260.624Z" transform="translate(-115.625 -250.451)"/><path class="b" d="M145.7,250.537a1.7,1.7,0,0,0-1.688,1.718v12.713c0,3.912-3.116,5.691-6.011,5.691s-6.011-1.78-6.011-5.691V252.255a1.741,1.741,0,0,0-1.72-1.718,1.7,1.7,0,0,0-1.686,1.718v12.617c0,5.868,4.738,8.939,9.417,8.939s9.419-3.071,9.419-8.939V252.255A1.742,1.742,0,0,0,145.7,250.537Z" transform="translate(-104.198 -250.375)"/><path class="b" d="M159.6,250.622H143.7a1.59,1.59,0,0,0-1.592,1.622,1.557,1.557,0,0,0,1.592,1.592h6.267V271.89a1.7,1.7,0,0,0,3.405,0V253.836H159.6a1.607,1.607,0,1,0,0-3.214Z" transform="translate(-92.284 -250.3)"/><path class="b" d="M172.514,250.537a1.7,1.7,0,0,0-1.688,1.718V260.5H159.219v-8.246a1.741,1.741,0,0,0-1.718-1.718,1.7,1.7,0,0,0-1.688,1.718v19.71a1.7,1.7,0,0,0,3.405,0v-8.248h11.607v8.248a1.7,1.7,0,0,0,3.407,0v-19.71A1.742,1.742,0,0,0,172.514,250.537Z" transform="translate(-80.199 -250.375)"/><path class="b" d="M185.064,253.836a1.607,1.607,0,1,0,0-3.214H172.253a1.7,1.7,0,0,0-1.686,1.718v19.389a1.689,1.689,0,0,0,1.686,1.688h12.811a1.59,1.59,0,0,0,1.622-1.592,1.607,1.607,0,0,0-1.622-1.624H173.972V263.61h9.94a1.59,1.59,0,0,0,1.624-1.592,1.606,1.606,0,0,0-1.624-1.624h-9.94v-6.559Z" transform="translate(-67.195 -250.3)"/><path class="b" d="M201.195,257.356c0-4.28-3.257-6.734-8.937-6.734h-7.443a1.7,1.7,0,0,0-1.688,1.718v19.55a1.7,1.7,0,0,0,3.405,0v-7.163H192.9c4.166,0,4.7,3.315,4.7,6.2v.96a1.613,1.613,0,0,0,1.72,1.686A1.687,1.687,0,0,0,201,271.89v-1.469c0-1.421-.265-5.925-3.518-7.3A6.186,6.186,0,0,0,201.195,257.356Zm-3.405.222c0,2.446-2.139,3.9-5.723,3.9h-5.533v-7.614H191.9C197.121,253.868,197.789,255.851,197.789,257.578Z" transform="translate(-56.124 -250.3)"/><path class="b" d="M210.843,270.085h-10.2V252.255a1.741,1.741,0,0,0-1.72-1.718,1.7,1.7,0,0,0-1.686,1.718v18.975a2.264,2.264,0,0,0,2.262,2.262h11.342a1.706,1.706,0,0,0,1.718-1.688A1.743,1.743,0,0,0,210.843,270.085Z" transform="translate(-43.683 -250.375)"/><path class="b" d="M221.185,252a2.252,2.252,0,0,0-2.081-1.462h-.32A2.252,2.252,0,0,0,216.7,252l-8.145,19.229a1.943,1.943,0,0,0-.181.737,1.632,1.632,0,0,0,1.688,1.686,1.714,1.714,0,0,0,1.6-1.046l2.013-4.832h10.527l2.015,4.835a1.712,1.712,0,0,0,1.6,1.042,1.632,1.632,0,0,0,1.688-1.686,1.922,1.922,0,0,0-.179-.737Zm1.7,12.623H215l3.94-9.481Z" transform="translate(-33.867 -250.375)"/><path class="b" d="M241.473,250.537a1.705,1.705,0,0,0-1.69,1.718v16.452l-11.85-17.116a2.493,2.493,0,0,0-1.955-1.054h-.416a2.343,2.343,0,0,0-2.324,2.357v19.071a1.688,1.688,0,0,0,1.686,1.686,1.7,1.7,0,0,0,1.72-1.686V255.483l11.912,17.206a2.356,2.356,0,0,0,1.893.961h.384a2.344,2.344,0,0,0,2.357-2.325V252.255A1.742,1.742,0,0,0,241.473,250.537Z" transform="translate(-20.765 -250.375)"/><path class="b" d="M255.6,254.255a11.19,11.19,0,0,0-8.687-3.633h-6.421a1.7,1.7,0,0,0-1.686,1.718v19.389a1.69,1.69,0,0,0,1.686,1.688h6.421a11.18,11.18,0,0,0,8.687-3.646,12.023,12.023,0,0,0,0-15.515Zm-.536,7.763c0,4.9-3.417,8.183-8.5,8.183h-4.348V253.836h4.348C251.649,253.836,255.066,257.124,255.066,262.018Z" transform="translate(-7.042 -250.3)"/></g><g transform="translate(0 1.245)"><path class="b" d="M100.452,251.175a16.992,16.992,0,0,0-2.92,0,1.25,1.25,0,0,0-1.119.726,1.207,1.207,0,0,0,.277,1.338l18.064,17.494a1.118,1.118,0,0,0,.946.327,1.053,1.053,0,0,0,1.029-.771,24.1,24.1,0,0,0,.835-2.7,1.722,1.722,0,0,0-.373-1.535,1.641,1.641,0,0,0-.124-.132L102.5,252.09A3.316,3.316,0,0,0,100.452,251.175Z" transform="translate(-69.692 -251.113)"/><path class="b" d="M99.328,271.605a16.986,16.986,0,0,0,2.92,0,1.244,1.244,0,0,0,1.119-.726,1.207,1.207,0,0,0-.275-1.338L85.027,252.047a1.111,1.111,0,0,0-.944-.326,1.054,1.054,0,0,0-1.031.771,24.928,24.928,0,0,0-.837,2.7,1.73,1.73,0,0,0,.376,1.533c.04.045.079.092.122.134l14.563,13.829A3.3,3.3,0,0,0,99.328,271.605Z" transform="translate(-82.167 -250.575)"/></g></g><g transform="translate(396.515 256.682)"><g transform="translate(1.846 1.294)"><path class="b" d="M250.223,254.317V251.31h1.21a.952.952,0,0,1,.681.248.862.862,0,0,1,.265.659.971.971,0,0,1-.066.361.766.766,0,0,1-.175.271.846.846,0,0,1-.25.171.876.876,0,0,1-.3.075l.811,1.221h-.442l-.76-1.189h-.6v1.189Zm.374-1.522h.788a.61.61,0,0,0,.437-.162.593.593,0,0,0,0-.83.613.613,0,0,0-.437-.158H250.6Z" transform="translate(-250.223 -251.31)"/></g><path class="b" d="M252.068,256.274a2.826,2.826,0,1,1,2.826-2.828A2.829,2.829,0,0,1,252.068,256.274Zm0-5.278a2.451,2.451,0,1,0,2.45,2.45A2.453,2.453,0,0,0,252.068,251Z" transform="translate(-249.242 -250.622)"/></g></g></svg>